<?xml version="1.0" standalone="no"?><!-- Generator: Gravit.io --><svg xmlns="http://www.w3.org/2000/svg" xmlns:xlink="http://www.w3.org/1999/xlink" style="isolation:isolate" viewBox="0 0 200 200" width="200" height="200"><defs><clipPath id="_clipPath_CwuejlHaMmcLVzcBn9vXPIHGycv7im0s"><rect width="200" height="200"/></clipPath></defs><g clip-path="url(#_clipPath_CwuejlHaMmcLVzcBn9vXPIHGycv7im0s)"><g transform="matrix(1,0,0,1,30,30)"><text transform="matrix(1,0,0,1,0,93.24)" style="font-family:'Alfa Slab One';font-weight:400;font-size:90px;font-style:normal;fill:#ae4444;stroke:none;">C</text><text transform="matrix(1,0,0,1,64.98,93.24)" style="font-family:'Alfa Slab One';font-weight:400;font-size:90px;font-style:normal;fill:#392929;stroke:none;">B</text></g><path d=" M 170 130 L 170 130 C 170.276 130 170.5 130.224 170.5 130.5 L 170.5 130.5 C 170.5 130.776 170.276 131 170 131 L 170 131 L 30 131 L 30 131 C 29.724 131 29.5 130.78 29.5 130.509 L 29.5 130.509 C 29.5 130.228 29.724 130 30 130 L 30 130 L 170 130 Z " fill="rgb(74,24,24)" vector-effect="non-scaling-stroke" stroke-width="0.5" stroke="rgb(74,24,24)" stroke-linejoin="miter" stroke-linecap="square" stroke-miterlimit="3"/><path d=" M 149.645 139.5 L 149.645 139.5 C 149.841 139.5 150 139.724 150 140 L 150 140 C 150 140.276 149.841 140.5 149.645 140.5 L 149.645 140.5 L 50.355 140.5 L 50.355 140.5 C 50.159 140.5 50 140.28 50 140.009 L 50 140.009 C 50 139.728 50.159 139.5 50.355 139.5 L 50.355 139.5 L 149.645 139.5 Z " fill="rgb(74,24,24)" vector-effect="non-scaling-stroke" stroke-width="0.5" stroke="rgb(74,24,24)" stroke-linejoin="miter" stroke-linecap="square" stroke-miterlimit="3"/><path d=" M 129.787 149.5 L 129.787 149.5 C 129.905 149.5 130 149.724 130 150 L 130 150 C 130 150.276 129.905 150.5 129.787 150.5 L 129.787 150.5 L 70.213 150.5 L 70.213 150.5 C 70.095 150.5 70 150.28 70 150.009 L 70 150.009 C 70 149.728 70.095 149.5 70.213 149.5 L 70.213 149.5 L 129.787 149.5 Z " fill="rgb(74,24,24)" vector-effect="non-scaling-stroke" stroke-width="0.5" stroke="rgb(74,24,24)" stroke-linejoin="miter" stroke-linecap="square" stroke-miterlimit="3"/></g></svg>